<?xml version='1.0' encoding='utf-8'?>
<mlt title="Anonymous Submission" LC_NUMERIC="en_US.UTF-8" producer="main bin" version="6.10.0" root="/home/krushn/Studio/Graphics/Animation/Adlon/intro/alto">
 <profile frame_rate_num="25" sample_aspect_num="1" display_aspect_den="9" colorspace="709" progressive="1" description="HD 1080p 25 fps" display_aspect_num="16" frame_rate_den="1" width="1920" height="1080" sample_aspect_den="1"/>
 <producer id="1" in="0" out="124">
  <property name="length">125</property>
  <property name="eof">pause</property>
  <property name="resource">ad.png</property>
  <property name="ttl">25</property>
  <property name="aspect_ratio">1</property>
  <property name="progressive">1</property>
  <property name="seekable">1</property>
  <property name="meta.media.width">1280</property>
  <property name="meta.media.height">720</property>
  <property name="mlt_service">qimage</property>
  <property name="kdenlive:folderid">-1</property>
  <property name="kdenlive:duration">125</property>
  <property name="kdenlive:file_size">32905</property>
  <property name="kdenlive:file_hash">a019ceebf55526351f85d4f6204148b6</property>
 </producer>
 <producer title="Anonymous Submission" id="2" in="0" out="23948">
  <property name="length">00:15:57:24</property>
  <property name="eof">pause</property>
  <property name="resource">Alto's Adventure (By Snowman) - iOS _ Android - Gameplay Video-TLCFGXprM94.mkv</property>
  <property name="audio_index">1</property>
  <property name="video_index">0</property>
  <property name="mute_on_pause">1</property>
  <property name="mlt_service">avformat-novalidate</property>
  <property name="meta.media.nb_streams">2</property>
  <property name="meta.media.0.stream.type">video</property>
  <property name="meta.media.0.stream.frame_rate">59.2219</property>
  <property name="meta.media.0.stream.sample_aspect_ratio">1</property>
  <property name="meta.media.0.codec.width">1920</property>
  <property name="meta.media.0.codec.height">1080</property>
  <property name="meta.media.0.codec.rotate">0</property>
  <property name="meta.media.0.codec.frame_rate">59.222</property>
  <property name="meta.media.0.codec.pix_fmt">yuv420p</property>
  <property name="meta.media.0.codec.sample_aspect_ratio">1</property>
  <property name="meta.media.0.codec.colorspace">709</property>
  <property name="meta.media.0.codec.color_trc">1</property>
  <property name="meta.media.0.codec.name">h264</property>
  <property name="meta.media.0.codec.long_name">H.264 / AVC / MPEG-4 AVC / MPEG-4 part 10</property>
  <property name="meta.media.0.codec.bit_rate">0</property>
  <property name="meta.attr.0.stream.HANDLER_NAME.markup">VideoHandler</property>
  <property name="meta.attr.0.stream.DURATION.markup">00:15:57.938000000</property>
  <property name="meta.media.1.stream.type">audio</property>
  <property name="meta.media.1.codec.sample_fmt">fltp</property>
  <property name="meta.media.1.codec.sample_rate">48000</property>
  <property name="meta.media.1.codec.channels">2</property>
  <property name="meta.media.1.codec.name">opus</property>
  <property name="meta.media.1.codec.long_name">Opus</property>
  <property name="meta.media.1.codec.bit_rate">0</property>
  <property name="meta.attr.1.stream.language.markup">eng</property>
  <property name="meta.attr.1.stream.DURATION.markup">00:15:57.961000000</property>
  <property name="meta.attr.COMPATIBLE_BRANDS.markup">iso6avc1mp41</property>
  <property name="meta.attr.MAJOR_BRAND.markup">dash</property>
  <property name="meta.attr.MINOR_VERSION.markup">0</property>
  <property name="meta.attr.ENCODER.markup">Lavf58.12.100</property>
  <property name="seekable">1</property>
  <property name="meta.media.sample_aspect_num">1</property>
  <property name="meta.media.sample_aspect_den">1</property>
  <property name="aspect_ratio">1</property>
  <property name="kdenlive:folderid">-1</property>
  <property name="meta.media.frame_rate_num">23215</property>
  <property name="meta.media.frame_rate_den">392</property>
  <property name="meta.media.colorspace">709</property>
  <property name="meta.media.color_trc">1</property>
  <property name="meta.media.width">1920</property>
  <property name="meta.media.height">1080</property>
  <property name="meta.media.top_field_first">0</property>
  <property name="meta.media.progressive">1</property>
  <property name="kdenlive:file_size">397014662</property>
  <property name="kdenlive:file_hash">ce2c199efab8b21891e313c8f3daa133</property>
  <property name="global_feed">1</property>
 </producer>
 <producer title="Anonymous Submission" id="3" in="0" out="124">
  <property name="length">125</property>
  <property name="eof">pause</property>
  <property name="resource">address.png</property>
  <property name="ttl">25</property>
  <property name="aspect_ratio">1</property>
  <property name="progressive">1</property>
  <property name="seekable">1</property>
  <property name="meta.media.width">1280</property>
  <property name="meta.media.height">720</property>
  <property name="mlt_service">qimage</property>
  <property name="kdenlive:duration">125</property>
  <property name="kdenlive:file_size">14824</property>
  <property name="kdenlive:file_hash">d0e6986f5af82aab7e0fa3349893c899</property>
  <property name="global_feed">1</property>
 </producer>
 <producer id="4" in="0" out="124">
  <property name="length">125</property>
  <property name="eof">pause</property>
  <property name="resource">address2.png</property>
  <property name="ttl">25</property>
  <property name="aspect_ratio">1</property>
  <property name="progressive">1</property>
  <property name="seekable">1</property>
  <property name="meta.media.width">1280</property>
  <property name="meta.media.height">720</property>
  <property name="mlt_service">qimage</property>
  <property name="kdenlive:duration">125</property>
  <property name="kdenlive:file_size">18130</property>
  <property name="kdenlive:file_hash">8bb5203232d0df53d584289438c24c48</property>
 </producer>
 <producer title="Anonymous Submission" id="5" in="0" out="124">
  <property name="length">125</property>
  <property name="eof">pause</property>
  <property name="resource">ad.ai.png</property>
  <property name="ttl">25</property>
  <property name="aspect_ratio">1</property>
  <property name="progressive">1</property>
  <property name="seekable">1</property>
  <property name="meta.media.width">1280</property>
  <property name="meta.media.height">720</property>
  <property name="mlt_service">qimage</property>
  <property name="kdenlive:duration">125</property>
  <property name="kdenlive:file_size">7968</property>
  <property name="kdenlive:file_hash">e6b280647d7baea6d32e0d742d48fbc8</property>
  <property name="global_feed">1</property>
 </producer>
 <producer id="6" in="0" out="124">
  <property name="length">125</property>
  <property name="eof">pause</property>
  <property name="resource">ad3.png</property>
  <property name="ttl">25</property>
  <property name="aspect_ratio">1</property>
  <property name="progressive">1</property>
  <property name="seekable">1</property>
  <property name="meta.media.width">1280</property>
  <property name="meta.media.height">720</property>
  <property name="mlt_service">qimage</property>
  <property name="kdenlive:duration">125</property>
  <property name="kdenlive:file_size">26321</property>
  <property name="kdenlive:file_hash">40003497fa88780631909ccae83b45dc</property>
 </producer>
 <producer id="10" in="0" out="124">
  <property name="length">125</property>
  <property name="eof">pause</property>
  <property name="resource">amazon.png</property>
  <property name="ttl">25</property>
  <property name="aspect_ratio">1</property>
  <property name="progressive">1</property>
  <property name="seekable">1</property>
  <property name="meta.media.width">1280</property>
  <property name="meta.media.height">720</property>
  <property name="mlt_service">qimage</property>
  <property name="kdenlive:duration">125</property>
  <property name="kdenlive:file_size">6257</property>
  <property name="kdenlive:file_hash">8afd1b46754c7653f3c91096f619b1d9</property>
 </producer>
 <producer id="11" in="0" out="124">
  <property name="length">125</property>
  <property name="eof">pause</property>
  <property name="resource">bmw.png</property>
  <property name="ttl">25</property>
  <property name="aspect_ratio">1</property>
  <property name="progressive">1</property>
  <property name="seekable">1</property>
  <property name="meta.media.width">1280</property>
  <property name="meta.media.height">720</property>
  <property name="mlt_service">qimage</property>
  <property name="kdenlive:duration">125</property>
  <property name="kdenlive:file_size">11736</property>
  <property name="kdenlive:file_hash">0ccc0315be47784a41b8ed7bec27841f</property>
 </producer>
 <producer id="12" in="0" out="124">
  <property name="length">125</property>
  <property name="eof">pause</property>
  <property name="resource">cocacolad.png</property>
  <property name="ttl">25</property>
  <property name="aspect_ratio">1</property>
  <property name="progressive">1</property>
  <property name="seekable">1</property>
  <property name="meta.media.width">1280</property>
  <property name="meta.media.height">720</property>
  <property name="mlt_service">qimage</property>
  <property name="kdenlive:duration">125</property>
  <property name="kdenlive:file_size">13271</property>
  <property name="kdenlive:file_hash">e42a46370856dea39595bf4b46d8769d</property>
 </producer>
 <producer title="Anonymous Submission" id="13" in="0" out="124">
  <property name="length">125</property>
  <property name="eof">pause</property>
  <property name="resource">credit.png</property>
  <property name="ttl">25</property>
  <property name="aspect_ratio">1</property>
  <property name="progressive">1</property>
  <property name="seekable">1</property>
  <property name="meta.media.width">1280</property>
  <property name="meta.media.height">720</property>
  <property name="mlt_service">qimage</property>
  <property name="kdenlive:duration">125</property>
  <property name="kdenlive:file_size">12913</property>
  <property name="kdenlive:file_hash">8dc2594f40c6fb1ee8cfe760ef48fa4a</property>
  <property name="global_feed">1</property>
 </producer>
 <playlist id="main bin">
  <property name="kdenlive:docproperties.audiotargettrack">-1</property>
  <property name="kdenlive:docproperties.decimalPoint">.</property>
  <property name="kdenlive:docproperties.dirtypreviewchunks"/>
  <property name="kdenlive:docproperties.disablepreview">0</property>
  <property name="kdenlive:docproperties.documentid">1534841447420</property>
  <property name="kdenlive:docproperties.enableproxy">0</property>
  <property name="kdenlive:docproperties.generateimageproxy">0</property>
  <property name="kdenlive:docproperties.generateproxy">0</property>
  <property name="kdenlive:docproperties.kdenliveversion">18.08.0</property>
  <property name="kdenlive:docproperties.position">653</property>
  <property name="kdenlive:docproperties.previewchunks"/>
  <property name="kdenlive:docproperties.previewextension"/>
  <property name="kdenlive:docproperties.previewparameters"/>
  <property name="kdenlive:docproperties.profile">atsc_1080p_25</property>
  <property name="kdenlive:docproperties.proxyextension">mkv</property>
  <property name="kdenlive:docproperties.proxyimageminsize">2000</property>
  <property name="kdenlive:docproperties.proxyminsize">1000</property>
  <property name="kdenlive:docproperties.proxyparams">-vf yadif,scale=960:-2 -qscale 3 -vcodec mjpeg -acodec pcm_s16le</property>
  <property name="kdenlive:docproperties.version">0.96</property>
  <property name="kdenlive:docproperties.verticalzoom">1</property>
  <property name="kdenlive:docproperties.videotargettrack">1</property>
  <property name="kdenlive:docproperties.zonein">51</property>
  <property name="kdenlive:docproperties.zoneout">149</property>
  <property name="kdenlive:docproperties.zoom">5</property>
  <property name="kdenlive:documentnotes"/>
  <property name="kdenlive:clipgroups"/>
  <property name="kdenlive:guide.120">00:02:00:00</property>
  <property name="kdenlive:guide.6.4">00:00:06:10</property>
  <property name="kdenlive:guide.10.48">00:00:10:12</property>
  <property name="kdenlive:guide.14">00:00:14:00</property>
  <property name="kdenlive:guide.12.32">00:00:12:08</property>
  <property name="kdenlive:guide.12.4">00:00:12:10</property>
  <property name="kdenlive:docproperties.renderaudioquality">192</property>
  <property name="kdenlive:docproperties.rendercategory">Generic (HD for web, mobile devices...)</property>
  <property name="kdenlive:docproperties.renderendguide">0</property>
  <property name="kdenlive:docproperties.renderexportaudio">1</property>
  <property name="kdenlive:docproperties.renderguide">0</property>
  <property name="kdenlive:docproperties.renderplay">0</property>
  <property name="kdenlive:docproperties.renderprofile">MP4 - the dominating format (H264/AAC)</property>
  <property name="kdenlive:docproperties.renderquality">15</property>
  <property name="kdenlive:docproperties.renderratio">1</property>
  <property name="kdenlive:docproperties.renderrescale">0</property>
  <property name="kdenlive:docproperties.renderrescaleheight">180</property>
  <property name="kdenlive:docproperties.renderrescalewidth">320</property>
  <property name="kdenlive:docproperties.renderscanning">0</property>
  <property name="kdenlive:docproperties.renderspeed">2</property>
  <property name="kdenlive:docproperties.renderstartguide">0</property>
  <property name="kdenlive:docproperties.rendertcoverlay">0</property>
  <property name="kdenlive:docproperties.rendertctype">0</property>
  <property name="kdenlive:docproperties.rendertwopass">0</property>
  <property name="kdenlive:docproperties.renderurl">new final with credits.mp4</property>
  <property name="kdenlive:docproperties.renderzone">0</property>
  <property name="xml_retain">1</property>
  <entry producer="1" in="0" out="124"/>
  <entry producer="2" in="0" out="23948"/>
  <entry producer="3" in="0" out="124"/>
  <entry producer="4" in="0" out="124"/>
  <entry producer="5" in="0" out="124"/>
  <entry producer="6" in="0" out="124"/>
  <entry producer="10" in="0" out="124"/>
  <entry producer="11" in="0" out="124"/>
  <entry producer="12" in="0" out="124"/>
  <entry producer="13" in="0" out="124"/>
 </playlist>
 <producer id="black" in="0" out="24164">
  <property name="length">24165</property>
  <property name="eof">pause</property>
  <property name="resource">black</property>
  <property name="aspect_ratio">0</property>
  <property name="mlt_service">colour</property>
  <property name="set.test_audio">0</property>
 </producer>
 <playlist id="black_track">
  <entry producer="black" in="0" out="653"/>
 </playlist>
 <producer title="Anonymous Submission" id="2_video" in="0" out="23948">
  <property name="length">00:15:57:24</property>
  <property name="eof">pause</property>
  <property name="resource">Alto's Adventure (By Snowman) - iOS _ Android - Gameplay Video-TLCFGXprM94.mkv</property>
  <property name="audio_index">-1</property>
  <property name="video_index">0</property>
  <property name="mute_on_pause">1</property>
  <property name="mlt_service">avformat-novalidate</property>
  <property name="seekable">1</property>
  <property name="aspect_ratio">1</property>
  <property name="kdenlive:folderid">-1</property>
  <property name="kdenlive:file_size">397014662</property>
  <property name="kdenlive:file_hash">ce2c199efab8b21891e313c8f3daa133</property>
  <property name="global_feed">1</property>
  <property name="xml">was here</property>
  <property name="meta.media.nb_streams">2</property>
  <property name="meta.media.0.stream.type">video</property>
  <property name="meta.media.0.stream.frame_rate">59.2219</property>
  <property name="meta.media.0.stream.sample_aspect_ratio">1</property>
  <property name="meta.media.0.codec.width">1920</property>
  <property name="meta.media.0.codec.height">1080</property>
  <property name="meta.media.0.codec.rotate">0</property>
  <property name="meta.media.0.codec.frame_rate">59.222</property>
  <property name="meta.media.0.codec.pix_fmt">yuv420p</property>
  <property name="meta.media.0.codec.sample_aspect_ratio">1</property>
  <property name="meta.media.0.codec.colorspace">709</property>
  <property name="meta.media.0.codec.color_trc">1</property>
  <property name="meta.media.0.codec.name">h264</property>
  <property name="meta.media.0.codec.long_name">H.264 / AVC / MPEG-4 AVC / MPEG-4 part 10</property>
  <property name="meta.media.0.codec.bit_rate">0</property>
  <property name="meta.attr.0.stream.HANDLER_NAME.markup">VideoHandler</property>
  <property name="meta.attr.0.stream.DURATION.markup">00:15:57.938000000</property>
  <property name="meta.media.1.stream.type">audio</property>
  <property name="meta.media.1.codec.sample_fmt">fltp</property>
  <property name="meta.media.1.codec.sample_rate">48000</property>
  <property name="meta.media.1.codec.channels">2</property>
  <property name="meta.media.1.codec.name">opus</property>
  <property name="meta.media.1.codec.long_name">Opus</property>
  <property name="meta.media.1.codec.bit_rate">0</property>
  <property name="meta.attr.1.stream.language.markup">eng</property>
  <property name="meta.attr.1.stream.DURATION.markup">00:15:57.961000000</property>
  <property name="meta.attr.COMPATIBLE_BRANDS.markup">iso6avc1mp41</property>
  <property name="meta.attr.MAJOR_BRAND.markup">dash</property>
  <property name="meta.attr.MINOR_VERSION.markup">0</property>
  <property name="meta.attr.ENCODER.markup">Lavf58.12.100</property>
  <property name="meta.media.sample_aspect_num">1</property>
  <property name="meta.media.sample_aspect_den">1</property>
  <property name="meta.media.frame_rate_num">23215</property>
  <property name="meta.media.frame_rate_den">392</property>
  <property name="meta.media.colorspace">709</property>
  <property name="meta.media.color_trc">1</property>
  <property name="meta.media.width">1920</property>
  <property name="meta.media.height">1080</property>
  <property name="meta.media.top_field_first">0</property>
  <property name="meta.media.progressive">1</property>
 </producer>
 <playlist id="playlist3">
  <property name="kdenlive:track_name">Video 1</property>
  <entry producer="2_video" in="792" out="950"/>
  <entry producer="2_video" in="1009" out="1199"/>
  <entry producer="2_video" in="1200" out="1290"/>
  <entry producer="2_video" in="1291" out="1353"/>
  <entry producer="2_video" in="1416" out="1518"/>
 </playlist>
 <playlist id="playlist4">
  <property name="kdenlive:track_name">Video 2</property>
  <blank length="98"/>
  <entry producer="1" in="0" out="65">
   <filter id="fade_from_black" out="12">
    <property name="start">0</property>
    <property name="mlt_service">brightness</property>
    <property name="kdenlive_id">fade_from_black</property>
    <property name="tag">brightness</property>
    <property name="kdenlive_ix">1</property>
    <property name="end">1</property>
    <property name="kdenlive_info"/>
   </filter>
   <filter id="fade_to_black" in="50" out="65">
    <property name="start">1</property>
    <property name="mlt_service">brightness</property>
    <property name="kdenlive_id">fade_to_black</property>
    <property name="tag">brightness</property>
    <property name="kdenlive_ix">2</property>
    <property name="end">0</property>
    <property name="kdenlive_info"/>
    <property name="disable"/>
   </filter>
  </entry>
  <blank length="28"/>
  <entry producer="3" in="0" out="39"/>
  <blank length="30"/>
  <entry producer="4" in="0" out="45"/>
  <blank length="134"/>
  <entry producer="6" in="0" out="61">
   <filter id="filter0" out="9">
    <property name="start">0</property>
    <property name="mlt_service">brightness</property>
    <property name="kdenlive_id">fade_from_black</property>
    <property name="tag">brightness</property>
    <property name="kdenlive_ix">1</property>
    <property name="end">1</property>
    <property name="kdenlive_info"/>
    <property name="disable"/>
   </filter>
   <filter id="filter1" in="46" out="61">
    <property name="start">1</property>
    <property name="mlt_service">brightness</property>
    <property name="kdenlive_id">fade_to_black</property>
    <property name="tag">brightness</property>
    <property name="kdenlive_ix">2</property>
    <property name="end">0</property>
    <property name="kdenlive_info"/>
    <property name="disable"/>
   </filter>
  </entry>
  <blank length="102"/>
  <entry producer="2_video" in="1588" out="1634">
   <filter id="filter2" in="1611" out="1634">
    <property name="start">1</property>
    <property name="mlt_service">brightness</property>
    <property name="kdenlive_id">fade_to_black</property>
    <property name="tag">brightness</property>
    <property name="kdenlive_ix">2</property>
    <property name="end">0</property>
   </filter>
   <filter id="frei0r.glow">
    <property name="version">0.1</property>
    <property name="mlt_service">frei0r.glow</property>
    <property name="kdenlive_id">frei0r.glow</property>
    <property name="tag">frei0r.glow</property>
    <property name="kdenlive_ix">3</property>
    <property name="kdenlive_info"/>
    <property name="Blur">1588=0.01</property>
   </filter>
  </entry>
 </playlist>
 <playlist id="playlist5">
  <property name="kdenlive:track_name">Video 3</property>
  <blank length="310"/>
  <entry producer="10" in="0" out="11"/>
  <entry producer="11" in="0" out="11"/>
  <entry producer="12" in="0" out="11"/>
  <entry producer="10" in="0" out="11"/>
  <entry producer="11" in="0" out="11"/>
  <entry producer="12" in="0" out="11"/>
  <entry producer="10" in="0" out="11"/>
  <entry producer="11" in="0" out="11"/>
  <entry producer="12" in="0" out="11"/>
  <entry producer="10" in="0" out="11"/>
  <entry producer="11" in="0" out="11"/>
  <blank length="144"/>
  <entry producer="10" in="0" out="19"/>
  <entry producer="13" in="0" out="46"/>
 </playlist>
 <playlist id="playlist0">
  <property name="kdenlive:track_name">Video 4</property>
 </playlist>
 <tractor title="Anonymous Submission" id="maintractor" global_feed="1" in="0" out="653">
  <track producer="black_track"/>
  <track producer="playlist3"/>
  <track producer="playlist4"/>
  <track producer="playlist5"/>
  <track producer="playlist0"/>
  <transition id="transition0">
   <property name="a_track">0</property>
   <property name="b_track">1</property>
   <property name="mlt_service">mix</property>
   <property name="always_active">1</property>
   <property name="sum">1</property>
   <property name="internal_added">237</property>
  </transition>
  <transition id="transition1">
   <property name="a_track">0</property>
   <property name="b_track">2</property>
   <property name="mlt_service">mix</property>
   <property name="always_active">1</property>
   <property name="sum">1</property>
   <property name="internal_added">237</property>
  </transition>
  <transition id="transition2">
   <property name="a_track">0</property>
   <property name="b_track">3</property>
   <property name="mlt_service">mix</property>
   <property name="always_active">1</property>
   <property name="sum">1</property>
   <property name="internal_added">237</property>
  </transition>
  <transition id="transition3">
   <property name="a_track">0</property>
   <property name="b_track">4</property>
   <property name="mlt_service">mix</property>
   <property name="always_active">1</property>
   <property name="sum">1</property>
   <property name="internal_added">237</property>
  </transition>
  <transition id="transition4">
   <property name="a_track">0</property>
   <property name="b_track">1</property>
   <property name="compositing">0</property>
   <property name="distort">0</property>
   <property name="rotate_center">0</property>
   <property name="mlt_service">qtblend</property>
   <property name="always_active">1</property>
   <property name="internal_added">237</property>
  </transition>
  <transition id="transition5">
   <property name="a_track">0</property>
   <property name="b_track">2</property>
   <property name="compositing">0</property>
   <property name="distort">0</property>
   <property name="rotate_center">0</property>
   <property name="mlt_service">qtblend</property>
   <property name="always_active">1</property>
   <property name="internal_added">237</property>
  </transition>
  <transition id="transition6">
   <property name="a_track">0</property>
   <property name="b_track">3</property>
   <property name="compositing">0</property>
   <property name="distort">0</property>
   <property name="rotate_center">0</property>
   <property name="mlt_service">qtblend</property>
   <property name="always_active">1</property>
   <property name="internal_added">237</property>
  </transition>
  <transition id="transition7">
   <property name="a_track">0</property>
   <property name="b_track">4</property>
   <property name="compositing">0</property>
   <property name="distort">0</property>
   <property name="rotate_center">0</property>
   <property name="mlt_service">qtblend</property>
   <property name="always_active">1</property>
   <property name="internal_added">237</property>
  </transition>
 </tractor>
</mlt>
